<svg xmlns="http://www.w3.org/2000/svg" width="51.942" height="56.936" viewBox="0 0 51.942 56.936">
  <g id="puzzle" transform="translate(51.942) rotate(90)">
    <path id="Контур_62252" data-name="Контур 62252" d="M19.393,228.094v-4.855h-.61a4.841,4.841,0,0,1,0-9.683h.61V208.7H13.331a1.207,1.207,0,0,1-1.207-1.207v-1.817a2.427,2.427,0,1,0-4.855,0v1.817A1.207,1.207,0,0,1,6.062,208.7H0v16.965a2.43,2.43,0,0,0,2.427,2.427Z" transform="translate(0 -176.152)" fill="#707070"/>
    <path id="Контур_62253" data-name="Контур 62253" d="M225.667,290.393a2.43,2.43,0,0,0,2.427-2.427V271h-4.855v.61a4.841,4.841,0,0,1-9.683,0V271H208.7v6.062a1.207,1.207,0,0,1-1.207,1.207h-1.817a2.427,2.427,0,1,0,0,4.855h1.817a1.207,1.207,0,0,1,1.207,1.207v6.062Z" transform="translate(-186.895 -238.451)" fill="#f8f8f8"/>
    <path id="Контур_62257" data-name="Контур 62257" d="M22.417,19.393a2.43,2.43,0,0,0,2.427-2.427V0H19.989V.61a4.841,4.841,0,0,1-9.683,0V0H5.452V6.062A1.207,1.207,0,0,1,4.245,7.269H2.427a2.427,2.427,0,0,0,0,4.855H4.245a1.207,1.207,0,0,1,1.207,1.207v6.062Z" transform="translate(25.462 14.25) rotate(-35)" fill="#9a9a9a"/>
    <path id="Контур_62255" data-name="Контур 62255" d="M2.427,0A2.43,2.43,0,0,0,0,2.427V19.393H4.855v-.61a4.841,4.841,0,1,1,9.683,0v.61h4.855V13.331A1.207,1.207,0,0,1,20.6,12.124h1.817a2.427,2.427,0,0,0,0-4.855H20.6a1.207,1.207,0,0,1-1.207-1.207V0Z" transform="translate(0 10.743)" fill="#d1d1d1"/>
  </g>
</svg>