<svg xmlns="http://www.w3.org/2000/svg" width="40.472" height="40.472" viewBox="0 0 40.472 40.472">
  <g id="puzzle" transform="translate(0 40.472) rotate(-90)">
    <path id="Контур_62252" data-name="Контур 62252" d="M0,227.655v-4.769H.6a4.756,4.756,0,1,0,0-9.512H0v-4.769H5.955A1.186,1.186,0,0,0,7.14,207.42v-1.785a2.385,2.385,0,0,1,4.769,0v1.785a1.186,1.186,0,0,0,1.186,1.186H19.05v16.666a2.387,2.387,0,0,1-2.385,2.385Z" transform="translate(21.421 -187.184)" fill="#707070"/>
    <path id="Контур_62253" data-name="Контур 62253" d="M205.635,290.05a2.387,2.387,0,0,1-2.385-2.385V271h4.769v.6a4.756,4.756,0,0,0,9.512,0V271H222.3v5.955a1.186,1.186,0,0,0,1.186,1.186h1.785a2.385,2.385,0,1,1,0,4.769h-1.785A1.186,1.186,0,0,0,222.3,284.1v5.955Z" transform="translate(-203.25 -249.579)" fill="#f8f8f8"/>
    <path id="Контур_62255" data-name="Контур 62255" d="M22.021,0a2.387,2.387,0,0,1,2.385,2.385V19.05H19.636v-.6a4.756,4.756,0,1,0-9.512,0v.6H5.355V13.1A1.186,1.186,0,0,0,4.17,11.91H2.385a2.385,2.385,0,0,1,0-4.769H4.17A1.186,1.186,0,0,0,5.355,5.955V0Z" transform="translate(16.066 0)" fill="#d1d1d1"/>
    <path id="Контур_62256" data-name="Контур 62256" d="M280.525,24.405a2.387,2.387,0,0,1-2.385-2.385V20.236a1.186,1.186,0,0,0-1.186-1.186H271V2.385A2.387,2.387,0,0,1,273.385,0H290.05V4.769h-.6a4.756,4.756,0,0,0,0,9.512h.6V19.05H284.1a1.186,1.186,0,0,0-1.186,1.186v1.785A2.387,2.387,0,0,1,280.525,24.405Z" transform="translate(-271 0)" fill="#9a9a9a"/>
  </g>
</svg>